<svg width="22" height="22" viewBox="0 0 22 22" fill="none" xmlns="http://www.w3.org/2000/svg">
<path fill-rule="evenodd" clip-rule="evenodd" d="M1.9433 11C1.9433 5.99492 6.00072 1.9375 11.0058 1.9375C16.0109 1.9375 20.0683 5.99492 20.0683 11C20.0683 11.0421 20.0711 11.0835 20.0764 11.1242C20.0724 11.1633 20.0708 11.2032 20.0718 11.2436C20.0795 11.5618 20.0387 12.0555 19.9342 12.5274C19.8203 13.0414 19.6721 13.3368 19.5853 13.4278C19.2079 13.8238 18.6887 14.0537 18.1418 14.0668C17.595 14.08 17.0653 13.8754 16.6693 13.498C16.4104 13.2513 16.3361 12.8892 16.3159 12.0477L16.1715 6.05002C16.1591 5.5324 15.7294 5.12289 15.2118 5.13535C14.6941 5.14781 14.2846 5.57752 14.2971 6.09513L14.3179 6.96094C13.4166 6.2209 12.263 5.77669 11.0058 5.77669C8.12107 5.77669 5.78256 8.1152 5.78256 10.9999C5.78256 13.8846 8.12107 16.2231 11.0058 16.2231C12.5988 16.2231 14.0252 15.51 14.9833 14.3855C15.0907 14.549 15.22 14.7069 15.3758 14.8553C16.1317 15.5758 17.1429 15.9664 18.1869 15.9413C19.2309 15.9162 20.2222 15.4773 20.9426 14.7214C21.4047 14.2365 21.6386 13.5027 21.7648 12.9329C21.9004 12.3208 21.9577 11.6757 21.9463 11.1985C21.9454 11.1641 21.9428 11.1302 21.9384 11.0969C21.9416 11.065 21.9433 11.0327 21.9433 11C21.9433 4.95939 17.0464 0.0625 11.0058 0.0625C4.96518 0.0625 0.0682983 4.95939 0.0682983 11C0.0682983 17.0406 4.96518 21.9375 11.0058 21.9375C13.5596 21.9375 15.9113 21.0611 17.7728 19.5933C18.1794 19.2728 18.2491 18.6833 17.9286 18.2767C17.608 17.8701 17.0185 17.8004 16.6119 18.121C15.0693 19.3373 13.1235 20.0625 11.0058 20.0625C6.00072 20.0625 1.9433 16.0051 1.9433 11ZM11.0058 7.65169C9.15661 7.65169 7.65756 9.15073 7.65756 10.9999C7.65756 12.8491 9.15661 14.3481 11.0058 14.3481C12.8549 14.3481 14.354 12.8491 14.354 10.9999C14.354 9.15073 12.8549 7.65169 11.0058 7.65169Z" fill="#969696"/>
</svg>
