<svg width="20" height="26" viewBox="0 0 20 26" fill="none" xmlns="http://www.w3.org/2000/svg">
<path d="M8.12502 17.9999C8.12502 16.9644 8.96448 16.1249 10 16.1249C11.0355 16.1249 11.875 16.9644 11.875 17.9999C11.875 19.0354 11.0355 19.8749 10 19.8749C8.96448 19.8749 8.12502 19.0354 8.12502 17.9999Z" fill="#969696"/>
<path fill-rule="evenodd" clip-rule="evenodd" d="M4.52708 11.2463L4.13278 7.6976C4.08223 7.24263 4.08223 6.78346 4.13278 6.32848L4.16124 6.07236C4.4631 3.35563 6.59885 1.20605 9.31358 0.886674C9.76961 0.833023 10.2304 0.833023 10.6864 0.886674C13.4011 1.20605 15.5369 3.35563 15.8387 6.07236L15.8672 6.32849C15.9177 6.78346 15.9177 7.24263 15.8672 7.6976L15.4729 11.2463L16.3311 11.3148C17.6846 11.4229 18.7897 12.4403 19.0091 13.7801C19.4667 16.5747 19.4667 19.4251 19.0091 22.2196C18.7897 23.5595 17.6846 24.5769 16.3311 24.6849L14.461 24.8342C11.4918 25.0713 8.50835 25.0713 5.53912 24.8342L3.66895 24.6849C2.31555 24.5769 1.21041 23.5595 0.991019 22.2196C0.53343 19.4251 0.53343 16.5747 0.991019 13.7801C1.21041 12.4403 2.31554 11.4229 3.66895 11.3148L4.52708 11.2463ZM9.53266 2.74883C9.84314 2.7123 10.1568 2.7123 10.4673 2.74883C12.3156 2.96628 13.7697 4.42978 13.9752 6.27942L14.0037 6.53554C14.0389 6.8529 14.0389 7.17319 14.0037 7.49054L13.6022 11.1036C11.2032 10.9491 8.79676 10.9491 6.39776 11.1036L5.99631 7.49054C5.96105 7.17319 5.96105 6.8529 5.99631 6.53554L6.02477 6.27942C6.23028 4.42978 7.68438 2.96628 9.53266 2.74883ZM14.3118 13.0346C11.4419 12.8055 8.55824 12.8055 5.68833 13.0346L3.81816 13.1839C3.3245 13.2233 2.9214 13.5944 2.84138 14.0831C2.41664 16.677 2.41664 19.3228 2.84138 21.9167C2.9214 22.4054 3.3245 22.7765 3.81816 22.8159L5.68833 22.9652C8.55824 23.1943 11.4419 23.1943 14.3118 22.9652L16.1819 22.8159C16.6756 22.7765 17.0787 22.4054 17.1587 21.9167C17.5835 19.3228 17.5835 16.677 17.1587 14.0831C17.0787 13.5944 16.6756 13.2233 16.1819 13.1839L14.3118 13.0346Z" fill="#969696"/>
</svg>
